PathFileType	4	(X/Y/Z)	C:/Users/opensim2020/Desktop/walking_exp_matlab/subject06_walking12_static.trc																																																																																																																																														
DataRate	CameraRate	NumFrames	NumMarkers	Units	OrigDataRate	OrigDataStartFrame	OrigNumFrames																																																																																																																																										
100	100	4	48	mm	100	1	363																																																																																																																																										
Frame#	Time	LFHD			RFHD			LBHD			RBHD			C7			T10			CLAV			STRN			RBAK			LSHO			LUPA			LELB			LFRM			LWRA			LWRB			LFIN			RSHO			RUPA			RELB			RFRM			RWRA			RWRB			RFIN			LASI			RASI			LPSI			RPSI			LTHI			LKNE			LTIB			LANK			LHEE			LTOE			RTHI			RKNE			RTIB			RANK			RHEE			RTOE			*39			*40			*41			*42			*43			*44			*45			*46			*47		
		X1	Y1	Z1	X2	Y2	Z2	X3	Y3	Z3	X4	Y4	Z4	X5	Y5	Z5	X6	Y6	Z6	X7	Y7	Z7	X8	Y8	Z8	X9	Y9	Z9	X10	Y10	Z10	X11	Y11	Z11	X12	Y12	Z12	X13	Y13	Z13	X14	Y14	Z14	X15	Y15	Z15	X16	Y16	Z16	X17	Y17	Z17	X18	Y18	Z18	X19	Y19	Z19	X20	Y20	Z20	X21	Y21	Z21	X22	Y22	Z22	X23	Y23	Z23	X24	Y24	Z24	X25	Y25	Z25	X26	Y26	Z26	X27	Y27	Z27	X28	Y28	Z28	X29	Y29	Z29	X30	Y30	Z30	X31	Y31	Z31	X32	Y32	Z32	X33	Y33	Z33	X34	Y34	Z34	X35	Y35	Z35	X36	Y36	Z36	X37	Y37	Z37	X38	Y38	Z38	X39	Y39	Z39	X40	Y40	Z40	X41	Y41	Z41	X42	Y42	Z42	X43	Y43	Z43	X44	Y44	Z44	X45	Y45	Z45	X46	Y46	Z46	X47	Y47	Z47	X48	Y48	Z48
																																																																																																																																																	
1	0	401.35681	1679.83508	658.33514	419.25745	1664.97107	528.0412	530.26312	1617.573	677.83466	546.53827	1609.03296	549.49451	530.25348	1460.13586	619.23218	561.0304	1133.37866	604.37524	416.655	1389.63074	608.07495	371.83548	1216.96387	610.28625	605.81421	1291.33545	538.05798	461.34842	1417.20691	774.17377	449.07089	1215.62683	846.75922	443.82904	1103.69421	861.29572	394.39548	962.45349	887.29779	311.8743	861.55286	848.70142	370.77267	845.23694	885.5116	312.767	775.14539	888.95886	475.8038	1420.44336	453.22119	486.30786	1225.15918	355.85269	454.06186	1110.76477	328.00082	427.46219	997.49286	292.41589	352.16873	861.41681	294.4516	410.56622	863.28082	261.54456	367.29935	793.00214	243.06168	380.99435	975.04266	704.73621	386.43079	982.5257	484.99573	538.35168	1004.92841	680.638	535.69385	1011.06287	514.45581	481.71234	666.61163	783.11652	500.07059	503.18362	772.44464	544.62994	252.27438	796.05017	543.65521	74.62154	772.33813	583.29138	56.08865	730.22925	395.45578	39.25054	770.46027	480.09055	651.15613	415.59854	494.21689	526.00079	430.88638	562.44818	269.91672	408.30219	575.10211	78.73544	436.61044	612.86908	51.15291	479.61288	418.50522	35.962	431.89917	511.18854	1711.08008	613.00616	NaN	NaN	NaN	NaN	NaN	NaN	NaN	NaN	NaN	NaN	NaN	NaN	NaN	NaN	NaN	NaN	NaN	NaN	NaN	NaN	NaN	NaN	NaN	NaN
2	0.01	401.36401	1679.81824	658.47339	419.08331	1664.97534	528.10565	530.29767	1617.54968	677.75348	546.42865	1609.06372	549.44574	530.2312	1460.11792	619.1991	560.99982	1133.34631	604.39001	416.65027	1389.60486	608.04755	371.77911	1216.94238	610.28851	605.71765	1291.28503	537.97314	461.3519	1417.18835	774.1286	449.0463	1215.65295	846.83643	443.772	1103.72913	861.47296	394.33386	962.49963	887.58661	311.89914	861.52448	849.07275	370.78857	845.31323	885.97198	312.75357	775.20135	889.53558	475.72888	1420.38403	453.2063	486.21762	1225.15784	355.80197	453.93576	1110.74683	327.95697	427.30405	997.4986	292.30359	352.01343	861.42139	294.30908	410.4147	863.30005	261.43311	367.15097	792.92609	243.05363	380.93265	975.02008	704.71399	386.39322	982.44824	485.0528	538.25153	1004.91101	680.6463	535.62274	1011.05481	514.48669	481.64948	666.59631	783.12195	500.04242	503.18112	772.47638	544.52295	252.07777	795.91443	543.66003	74.63024	772.354	583.31134	56.09999	730.22046	395.61526	39.22768	770.6347	480.03036	651.18103	415.59799	494.20435	525.99219	430.91946	562.44574	269.92264	408.29007	575.11755	78.73911	436.58124	612.87347	51.15088	479.59122	418.54565	35.93471	431.81165	511.10712	1711.07666	612.98608	NaN	NaN	NaN	NaN	NaN	NaN	NaN	NaN	NaN	NaN	NaN	NaN	NaN	NaN	NaN	NaN	NaN	NaN	NaN	NaN	NaN	NaN	NaN	NaN
3	0.02	401.34824	1679.79749	658.55005	418.90997	1665.01343	528.16199	530.30573	1617.54895	677.68512	546.25452	1609.10962	549.3299	530.35352	1460.12598	619.35669	560.89697	1133.36047	604.39447	416.61893	1389.57605	608.05627	371.70856	1216.90894	610.29529	605.64893	1291.20166	537.90668	461.37149	1417.17126	774.10809	449.01852	1215.66455	846.91174	443.68744	1103.76794	861.6994	394.2442	962.55389	887.86328	311.86758	861.51117	849.48975	370.74426	845.35492	886.45813	312.69778	775.26392	890.01404	475.66641	1420.35791	453.17828	486.07474	1225.10767	355.75824	453.69205	1110.91858	327.54327	427.13156	997.51843	292.20251	351.84683	861.4505	294.20477	410.24326	863.32172	261.28815	367.00723	792.9256	242.94441	380.8439	975.02008	704.70221	386.31714	982.49701	485.07193	538.16461	1004.92053	680.71204	535.552	1011.04901	514.5152	481.60272	666.59821	783.13446	500.00192	503.20139	772.47614	544.52417	252.13493	796.01215	543.64276	74.64872	772.37677	583.2926	56.11243	730.25323	395.46042	39.23631	770.49518	480.02957	651.16693	415.65094	494.18701	526.00513	430.9563	562.45496	269.94894	408.30484	575.09857	78.78784	436.6189	612.86053	51.15333	479.61963	418.52411	35.9091	431.86798	511.08871	1711.15649	613.15393	NaN	NaN	NaN	NaN	NaN	NaN	NaN	NaN	NaN	NaN	NaN	NaN	NaN	NaN	NaN	NaN	NaN	NaN	NaN	NaN	NaN	NaN	NaN	NaN
4	0.03	401.31259	1679.77234	658.69165	418.70129	1665.06079	528.26447	530.2926	1617.53772	677.60596	546.01703	1609.21631	549.35699	530.3103	1460.12781	619.33746	560.74652	1133.35535	604.38037	416.58743	1389.54749	608.03595	371.62607	1216.88037	610.26105	605.56812	1291.16821	537.8866	461.36661	1417.1405	774.08844	448.95871	1215.67139	847.00909	443.59311	1103.79102	861.86517	394.14795	962.61005	888.16522	311.82578	861.48883	849.88947	370.66425	845.42719	886.93597	312.65088	775.341	890.56366	475.5845	1420.32495	453.15335	485.95395	1225.08972	355.72623	453.59766	1110.72681	327.80609	426.95123	997.53473	292.07901	351.65536	861.46338	294.05475	410.01788	863.38184	261.08176	366.75354	793.08667	242.46855	380.75009	974.98138	704.71405	386.25537	982.40466	484.97336	538.05798	1004.9455	680.73279	535.44458	1011.0459	514.54382	481.49979	666.56396	783.13257	499.98822	503.18723	772.487	544.57892	252.30762	796.13763	543.63739	74.60771	772.34064	583.29242	56.11961	730.25208	395.60577	39.17403	770.62726	480.01483	651.14771	415.67606	494.17218	526.01184	430.96149	562.43854	269.93457	408.31528	575.08875	78.80991	436.59952	612.85791	51.16341	479.64709	418.48175	36.10453	431.67789	510.9791	1711.125	613.14752	NaN	NaN	NaN	NaN	NaN	NaN	NaN	NaN	NaN	NaN	NaN	NaN	NaN	NaN	NaN	NaN	NaN	NaN	NaN	NaN	NaN	NaN	NaN	NaN
